#!OML:ASF F:\VICON\USERDATA\INSTALL\rory3\rory3.ASF
:FULLY-SPECIFIED
:DEGREES
856
root -3.7933 19.0775 8.82128 15.1697 -10.3795 0.0795044
lowerback -1.52809 -0.614113 5.40086
upperback -5.57033 -0.759037 0.0621918
thorax -4.99548 -0.628403 -2.93624
lowerneck -15.7088 -2.27288 -7.54243
upperneck 21.4456 -1.96985 3.09616
head 9.47936 -1.1984 2.07798
rclavicle 1.41634e-014 1.31198e-014
rhumerus -43.4709 9.68697 -87.2001
rradius 46.8507
rwrist 11.6264
rhand -25.2741 -49.7153
rfingers 7.12502
rthumb 1.24679 -79.6914
lclavicle 1.41634e-014 1.31198e-014
lhumerus -46.2237 -8.33556 81.3023
lradius 59.7676
lwrist 0.108094
lhand -33.2611 -41.4486
lfingers 7.12502
lthumb -6.46624 -11.5673
rfemur -27.7079 12.45 18.7798
rtibia 24.5806
rfoot 8.71612 -3.8118
rtoes -16.9343
lfemur -68.9951 28.0058 -7.08797
ltibia 136.384
lfoot -20.1182 -3.63467
ltoes -13.3558
857
root -3.81387 18.9225 8.83208 15.4469 -10.1915 -0.278264
lowerback -1.728 -0.743584 5.47853
upperback -5.53814 -0.937504 0.266989
thorax -4.86222 -0.711717 -2.76406
lowerneck -16.1924 -2.17959 -7.30817
upperneck 21.5354 -1.80665 2.86883
head 9.5868 -1.12677 1.97983
rclavicle 3.16813e-014 -1.39149e-014
rhumerus -43.0968 9.33024 -87.1727
rradius 46.1248
rwrist 10.493
rhand -27.1459 -48.1107
rfingers 7.12502
rthumb -0.560969 -78.0897
lclavicle 3.16813e-014 -1.39149e-014
lhumerus -45.876 -8.01023 81.112
lradius 59.6517
lwrist 0.395226
lhand -33.2842 -40.7717
lfingers 7.12502
lthumb -6.4886 -10.8911
rfemur -28.3136 12.6608 19.2104
rtibia 25.5505
rfoot 9.25689 -3.69574
rtoes -18.4512
lfemur -69.2076 27.489 -6.73612
ltibia 136.007
lfoot -20.206 -3.9756
ltoes -11.4519
858
root -3.82706 18.7569 8.85172 15.6881 -9.78808 -0.496743
lowerback -2.06083 -0.901578 5.63199
upperback -5.56568 -1.1644 0.390844
thorax -4.72476 -0.825947 -2.71994
lowerneck -16.5881 -2.14547 -6.94085
upperneck 21.8181 -1.71566 2.4056
head 9.74847 -1.10932 1.7692
rclavicle -2.68608e-014 -6.75868e-015
rhumerus -43.1312 8.94453 -87.1849
rradius 45.9269
rwrist 9.35109
rhand -28.5814 -47.6399
rfingers 7.12502
rthumb -1.94744 -77.6107
lclavicle -2.68608e-014 -6.75868e-015
lhumerus -45.7789 -7.82672 80.9908
lradius 59.6706
lwrist 0.599348
lhand -33.1679 -40.5499
lfingers 7.12502
lthumb -6.3763 -10.6659
rfemur -28.7247 12.1816 19.6859
rtibia 26.598
rfoot 9.11866 -3.21465
rtoes -20.9935
lfemur -69.2936 26.1557 -6.73586
ltibia 135.56
lfoot -20.2029 -3.7056
ltoes -11.0778
859
root -3.83767 18.56 8.8378 15.8918 -9.36098 -0.798297
lowerback -1.88005 -1.10504 5.79824
upperback -5.70277 -1.41289 0.543856
thorax -4.99735 -0.963282 -2.64085
lowerneck -16.6914 -2.11754 -6.70419
upperneck 21.8428 -1.68034 2.18776
head 9.77046 -1.09832 1.65782
rclavicle 1.06847e-014 5.1684e-015
rhumerus -43.3609 8.51065 -87.1737
rradius 46.1161
rwrist 8.98788
rhand -28.4335 -48.6405
rfingers 7.12502
rthumb -1.80463 -78.6126
lclavicle 1.06847e-014 5.1684e-015
lhumerus -45.8117 -7.68889 80.8339
lradius 59.8026
lwrist 0.863168
lhand -33.0773 -40.7017
lfingers 7.12502
lthumb -6.28885 -10.8151
rfemur -29.2825 11.9455 20.1606
rtibia 27.6843
rfoot 7.7415 -3.15576
rtoes -21.6245
lfemur -69.8494 25.4323 -6.53508
ltibia 135.394
lfoot -20.1085 -3.59125
ltoes -12.9089
860
root -3.85284 18.3812 8.86021 16.0194 -8.83145 -0.841455
lowerback -2.29809 -1.32606 5.8115
upperback -5.663 -1.73724 0.600052
thorax -4.74592 -1.11729 -2.59175
lowerneck -17.5023 -2.19909 -6.0519
upperneck 22.4037 -1.72248 1.39992
head 10.1125 -1.16042 1.26454
rclavicle 3.21783e-014 1.07344e-014
rhumerus -43.4402 7.89181 -87.0273
rradius 46.2279
rwrist 9.08486
rhand -27.4218 -49.4885
rfingers 7.12502
rthumb -0.827462 -79.4667
lclavicle 3.21783e-014 1.07344e-014
lhumerus -45.7375 -7.76598 80.733
lradius 59.9996
lwrist 1.60826
lhand -33.0282 -40.9119
lfingers 7.12502
lthumb -6.24147 -11.0239
rfemur -29.6713 11.2233 20.5133
rtibia 29.0248
rfoot 4.6053 -2.37857
rtoes -23.0291
lfemur -69.9623 24.0351 -6.77039
ltibia 134.925
lfoot -20.1835 -3.06078
ltoes -13.9447
861
root -3.87063 18.1988 8.89407 16.3812 -8.22254 -1.40926
lowerback -3.13104 -1.43236 6.35864
upperback -5.59537 -1.93624 0.802101
thorax -4.2387 -1.22072 -2.70801
lowerneck -16.5653 -2.04627 -6.65437
upperneck 21.3471 -1.64836 2.38488
head 9.57 -1.04926 1.71999
rclavicle -2.70223e-014 -2.22639e-014
rhumerus -43.4494 7.12997 -86.7273
rradius 46.1706
rwrist 9.37883
rhand -25.6865 -50.7561
rfingers 7.12502
rthumb 0.848508 -80.7341
lclavicle -2.70223e-014 -2.22639e-014
lhumerus -45.5667 -7.92598 80.6829
lradius 60.2439
lwrist 2.11427
lhand -32.8212 -41.0196
lfingers 7.12502
lthumb -6.04157 -11.1257
rfemur -30.1597 10.3135 21.6109
rtibia 30.5427
rfoot 0.985023 -1.85815
rtoes -22.8908
lfemur -70.3156 23.5859 -6.24814
ltibia 134.534
lfoot -20.6627 -3.26695
ltoes -12.7076
862
root -3.87479 17.9991 8.89108 16.3715 -7.73652 -1.2189
lowerback -3.09442 -1.62956 6.17551
upperback -5.59164 -2.19641 0.794855
thorax -4.27153 -1.34391 -2.60871
lowerneck -16.3931 -1.9906 -6.59918
upperneck 21.0132 -1.60518 2.42464
head 9.41801 -1.01585 1.7286
rclavicle -7.90169e-015 -2.48481e-014
rhumerus -43.411 6.35492 -86.4793
rradius 45.9099
rwrist 9.48229
rhand -25.1222 -50.8111
rfingers 7.12502
rthumb 1.39353 -80.7863
lclavicle -7.90169e-015 -2.48481e-014
lhumerus -45.3285 -7.91674 80.5042
lradius 60.544
lwrist 1.98933
lhand -32.9648 -41.6379
lfingers 7.12502
lthumb -6.18024 -11.748
rfemur -30.7607 9.19585 21.9196
rtibia 32.3919
rfoot -2.45033 -2.27808
rtoes -23.217
lfemur -70.8312 21.2583 -7.04226
ltibia 134.155
lfoot -20.0429 -2.64612
ltoes -11.5184
863
root -3.88469 17.8084 8.89274 16.3496 -7.3554 -1.2649
lowerback -2.90478 -1.78416 6.12033
upperback -5.59513 -2.38666 0.849867
thorax -4.39483 -1.43824 -2.51085
lowerneck -16.5751 -1.99837 -6.38072
upperneck 20.8636 -1.62972 2.29915
head 9.39718 -1.02035 1.64392
rclavicle 2.27733e-014 2.60408e-014
rhumerus -43.5355 5.42966 -86.2684
rradius 45.9377
rwrist 9.264
rhand -25.6241 -50.4406
rfingers 7.12502
rthumb 0.908838 -80.4184
lclavicle 2.27733e-014 2.60408e-014
lhumerus -45.1044 -8.00732 80.4147
lradius 60.8818
lwrist 2.18143
lhand -33.3576 -42.0256
lfingers 7.12502
lthumb -6.5594 -12.1472
rfemur -31.5991 8.46061 22.4192
rtibia 34.5628
rfoot -5.60992 -3.2736
rtoes -21.7141
lfemur -71.0619 20.0708 -7.33368
ltibia 133.653
lfoot -19.8685 -2.61797
ltoes -12.0906
864
root -3.89646 17.606 8.88966 16.4147 -7.08594 -1.29713
lowerback -2.84362 -1.86512 5.987
upperback -5.51855 -2.49036 0.9213
thorax -4.34715 -1.47953 -2.36061
lowerneck -16.4036 -2.0904 -6.47466
upperneck 20.0532 -1.75549 2.37816
head 9.0917 -1.06607 1.66625
rclavicle -3.32467e-014 1.94809e-014
rhumerus -43.6088 4.60889 -86.0126
rradius 46.2534
rwrist 8.9183
rhand -25.39 -51.7258
rfingers 7.12502
rthumb 1.13488 -81.7025
lclavicle -3.32467e-014 1.94809e-014
lhumerus -44.6136 -8.07363 80.4547
lradius 61.1949
lwrist 2.40251
lhand -32.2433 -40.8693
lfingers 7.12502
lthumb -5.48363 -10.9603
rfemur -32.8565 7.84476 22.8807
rtibia 37.0194
rfoot -8.40222 -4.45223
rtoes -18.8302
lfemur -71.4111 19.3776 -7.60859
ltibia 133.205
lfoot -20.0459 -2.7387
ltoes -13.4523
865
root -3.90985 17.3955 8.86535 16.1564 -7.26386 -1.34616
lowerback -2.33373 -1.8175 5.67017
upperback -5.23079 -2.39812 0.973079
thorax -4.30473 -1.41123 -2.12181
lowerneck -16.3498 -2.24324 -6.40303
upperneck 19.073 -1.92181 2.11818
head 8.75067 -1.15211 1.53967
rclavicle -1.36167e-014 4.17448e-015
rhumerus -43.3187 3.9226 -85.8015
rradius 46.317
rwrist 8.70321
rhand -25.1921 -52.7851
rfingers 7.12502
rthumb 1.32603 -82.7607
lclavicle -1.36167e-014 4.17448e-015
lhumerus -43.6722 -7.9634 80.3939
lradius 61.3279
lwrist 1.92726
lhand -33.2735 -42.0489
lfingers 7.12502
lthumb -6.47828 -12.1679
rfemur -34.1229 7.85098 23.275
rtibia 39.6953
rfoot -10.8809 -5.83871
rtoes -15.0084
lfemur -71.5896 19.3438 -7.7455
ltibia 132.772
lfoot -20.009 -3.50112
ltoes -13.2258
